<svg width="91" height="84" viewBox="0 0 91 84" fill="none" xmlns="http://www.w3.org/2000/svg">
<path d="M17.7185 75H13.7074L5.82478 66.4198H5.75502V75H2.89495V48.5618H5.75502V65.3211H5.82478L13.3237 57.142H17.0732L8.78948 65.7571L17.7185 75ZM28.1124 75.4185C25.4732 75.4185 23.3631 74.5873 21.7819 72.9247C20.2123 71.2505 19.4276 69.0357 19.4276 66.2803C19.4276 63.2807 20.2472 60.938 21.8865 59.2522C23.5258 57.5664 25.7406 56.7235 28.5309 56.7235C31.1934 56.7235 33.2687 57.5431 34.7568 59.1824C36.2566 60.8217 37.0065 63.0947 37.0065 66.0012C37.0065 68.8497 36.1985 71.1343 34.5824 72.8549C32.978 74.564 30.8213 75.4185 28.1124 75.4185ZM28.3217 59.1301C26.4847 59.1301 25.0314 59.7579 23.9618 61.0136C22.8922 62.2576 22.3574 63.9783 22.3574 66.1756C22.3574 68.2916 22.898 69.96 23.9792 71.1808C25.0605 72.4015 26.508 73.0119 28.3217 73.0119C30.1703 73.0119 31.5887 72.4131 32.5769 71.2156C33.5768 70.0181 34.0767 68.3149 34.0767 66.1059C34.0767 63.8736 33.5768 62.1529 32.5769 60.9438C31.5887 59.7347 30.1703 59.1301 28.3217 59.1301ZM56.8177 75H53.9577V71.9655H53.8879C52.5625 74.2675 50.5163 75.4185 47.7492 75.4185C45.5053 75.4185 43.7091 74.6221 42.3604 73.0293C41.0234 71.4249 40.3549 69.245 40.3549 66.4895C40.3549 63.5365 41.099 61.1705 42.5871 59.3917C44.0753 57.6129 46.0576 56.7235 48.534 56.7235C50.9871 56.7235 52.7718 57.6884 53.8879 59.6184H53.9577V48.5618H56.8177V75ZM53.9577 66.9255V64.2922C53.9577 62.8505 53.481 61.6298 52.5276 60.6299C51.5743 59.63 50.3651 59.1301 48.9002 59.1301C47.1563 59.1301 45.7844 59.7695 44.7845 61.0484C43.7847 62.3273 43.2847 64.0945 43.2847 66.35C43.2847 68.4079 43.7614 70.0356 44.7148 71.2331C45.6797 72.419 46.9703 73.0119 48.5863 73.0119C50.1791 73.0119 51.4696 72.4364 52.4579 71.2854C53.4577 70.1344 53.9577 68.6811 53.9577 66.9255ZM71.9203 60.0369C71.4204 59.6533 70.6995 59.4614 69.7578 59.4614C68.537 59.4614 67.5139 60.0369 66.6885 61.188C65.8746 62.339 65.4677 63.9085 65.4677 65.8966V75H62.6076V57.142H65.4677V60.8217H65.5375C65.9444 59.5661 66.5664 58.5895 67.4035 57.8919C68.2406 57.1827 69.1765 56.8281 70.2112 56.8281C70.9553 56.8281 71.525 56.9095 71.9203 57.0722V60.0369ZM87.8076 75H84.9476V72.2097H84.8778C83.6338 74.3489 81.8027 75.4185 79.3844 75.4185C77.6056 75.4185 76.2104 74.9477 75.1989 74.006C74.1991 73.0642 73.6991 71.8144 73.6991 70.2565C73.6991 66.9197 75.664 64.9781 79.5937 64.4317L84.9476 63.6818C84.9476 60.6473 83.721 59.1301 81.2679 59.1301C79.117 59.1301 77.1754 59.8626 75.4431 61.3275V58.3976C77.1986 57.2815 79.2216 56.7235 81.512 56.7235C85.7091 56.7235 87.8076 58.9441 87.8076 63.3853V75ZM84.9476 65.9664L80.64 66.5593C79.3146 66.7453 78.3148 67.0767 77.6404 67.5534C76.9661 68.0184 76.629 68.8497 76.629 70.0472C76.629 70.9192 76.9371 71.6342 77.5532 72.1922C78.1811 72.7387 79.0123 73.0119 80.0471 73.0119C81.4655 73.0119 82.6339 72.5178 83.5524 71.5295C84.4825 70.5297 84.9476 69.2682 84.9476 67.7452V65.9664Z" fill="white"/>
<path d="M80.9 26.794H10L10.036 26.485L26.275 10.274L30.724 14.715L45.464 0L60.206 14.715L64.654 10.274L80.894 26.485L80.901 26.793L80.9 26.794ZM23.988 23.133C24.328 23.133 24.679 23.149 25.03 23.181C25.053 23.181 25.067 23.191 25.072 23.205C25.108 23.305 24.736 23.67 24.343 24.06C23.912 24.487 23.466 24.928 23.55 25.026C24.0752 24.5435 24.6532 24.1219 25.273 23.769C25.9543 23.3882 26.5785 22.9132 27.127 22.358C27.211 22.458 27.261 22.498 27.296 22.498C27.331 22.498 27.36 22.439 27.396 22.349C27.4492 22.1874 27.5327 22.0373 27.642 21.907C27.9069 21.6802 28.2158 21.5108 28.5493 21.4092C28.8828 21.3077 29.2338 21.2763 29.58 21.317H29.748H29.773C29.893 21.317 29.913 21.427 29.923 21.531C29.923 21.543 29.923 21.555 29.923 21.566V21.573C29.931 21.666 29.937 21.746 29.999 21.746C30.0288 21.7433 30.0574 21.733 30.082 21.716C30.2971 21.5641 30.4789 21.3698 30.616 21.145C30.753 20.9198 30.9352 20.7254 31.151 20.574C30.776 19.9731 30.3469 19.4078 29.869 18.885C28.66 17.472 27.289 15.87 27.634 13.03C27.6174 13.0287 27.6007 13.0287 27.584 13.03C27.515 13.03 27.39 13.03 27.269 13.036C27.108 13.041 27.005 13.044 26.953 13.044H26.917C26.8647 12.9811 26.8172 12.9142 26.775 12.844C26.686 12.702 26.622 12.6 26.411 12.6C26.2442 12.6107 26.0797 12.6444 25.922 12.7C24.788 13.575 15.822 22.681 15.731 22.773C15.8626 22.9419 16.01 23.0979 16.171 23.239C16.435 23.004 17.699 21.946 17.853 21.883C17.9807 21.8111 18.1228 21.7688 18.269 21.759C18.3245 21.7528 18.3804 21.7668 18.4265 21.7984C18.4725 21.8299 18.5057 21.877 18.52 21.931C18.62 22.278 18.157 23.112 17.045 23.777C17.074 23.766 17.1051 23.7615 17.136 23.764C17.6417 23.7969 18.1401 23.902 18.616 24.076H18.626C18.667 24.07 18.705 24.065 18.742 24.062C18.8517 23.9855 18.9569 23.9027 19.057 23.814L19.065 23.807C19.1079 23.8654 19.1336 23.9347 19.139 24.007C19.074 24.185 19.058 24.278 19.087 24.319C19.0939 24.3278 19.103 24.3348 19.1133 24.3391C19.1236 24.3435 19.1349 24.3452 19.146 24.344C19.3189 24.3055 19.4848 24.2408 19.638 24.152C19.871 24.042 20.189 23.891 20.583 23.743C21.6709 23.3322 22.8252 23.1254 23.988 23.133V23.133ZM64.247 13.608C64.1603 13.611 64.0745 13.6261 63.992 13.653C63.094 14.3634 62.2648 15.1566 61.515 16.022L66.237 20.739C66.2336 20.7414 66.2309 20.7445 66.229 20.7482C66.2271 20.7518 66.2261 20.7559 66.226 20.76C66.226 20.833 66.447 21.027 66.707 21.252C66.9115 21.4222 67.1071 21.6028 67.293 21.793L67.651 22.149L67.528 22.274C67.572 22.2974 67.6212 22.3094 67.671 22.309C67.7194 22.3081 67.7673 22.2997 67.813 22.284C67.977 22.264 68.066 21.937 68.168 21.559C68.2325 21.2328 68.3551 20.9208 68.53 20.638C69.121 21.495 69.44 21.877 69.565 21.877C69.5722 21.8771 69.5794 21.8757 69.5859 21.8727C69.5925 21.8698 69.5983 21.8655 69.603 21.86C69.659 21.795 69.626 21.555 69.587 21.276C69.574 21.182 69.56 21.085 69.549 20.986C69.4823 20.7149 69.5116 20.4289 69.632 20.177C69.6571 20.1492 69.6881 20.1275 69.7227 20.1133C69.7573 20.0991 69.7947 20.0928 69.832 20.095C69.9669 20.1055 70.0975 20.1476 70.213 20.218C70.0079 19.8904 69.8934 19.5143 69.881 19.128C69.859 18.786 69.844 18.539 69.223 18.07C69.1881 18.0793 69.1522 18.084 69.116 18.084C68.127 18.084 66.144 14.806 65.706 13.994C65.684 13.994 65.454 14.12 65.18 14.271L65.144 14.291C64.913 14.418 64.674 14.549 64.657 14.549C64.567 14.4078 64.5255 14.241 64.539 14.074C64.526 13.834 64.516 13.608 64.246 13.608H64.247ZM36.547 17.328C36.59 17.3863 36.6153 17.4557 36.62 17.528C36.566 17.674 36.553 17.758 36.578 17.794C36.5827 17.8004 36.5889 17.8054 36.5961 17.8087C36.6032 17.8121 36.6111 17.8135 36.619 17.813C36.8975 17.6961 37.1542 17.5328 37.378 17.33C38.8229 16.1794 40.4746 15.3159 42.244 14.786C42.485 14.804 42.603 15.136 42.707 15.428C42.7427 15.554 42.797 15.674 42.868 15.784C43.3936 15.3005 43.9723 14.8781 44.593 14.525C45.2735 14.1451 45.8969 13.6711 46.445 13.117C46.528 13.217 46.578 13.257 46.614 13.257C46.65 13.257 46.678 13.198 46.714 13.108C46.7674 12.9467 46.8508 12.7971 46.96 12.667C47.2239 12.4399 47.532 12.2701 47.8649 12.1684C48.1979 12.0666 48.5483 12.0352 48.894 12.076H49.066H49.091C49.211 12.076 49.231 12.186 49.241 12.29C49.241 12.303 49.241 12.316 49.241 12.329C49.249 12.429 49.255 12.505 49.317 12.505C49.3472 12.5022 49.3762 12.4915 49.401 12.474C49.6162 12.3226 49.798 12.1286 49.935 11.904C50.072 11.6788 50.2542 11.4844 50.47 11.333C50.0948 10.7314 49.6654 10.1653 49.187 9.642C47.978 8.23 46.608 6.629 46.953 3.789C46.9344 3.78738 46.9156 3.78738 46.897 3.789C46.826 3.789 46.697 3.78901 46.597 3.79601C46.497 3.80301 46.354 3.802 46.287 3.802C46.271 3.80328 46.255 3.80328 46.239 3.802C46.1863 3.7391 46.1385 3.67224 46.096 3.60201C46.007 3.46101 45.943 3.358 45.733 3.358C45.5662 3.36867 45.4016 3.40233 45.244 3.45801C44.115 4.33001 35.144 13.439 35.052 13.531C35.1845 13.6995 35.3321 13.8554 35.493 13.997C35.757 13.762 37.022 12.704 37.175 12.642C37.303 12.57 37.4455 12.5276 37.592 12.518C37.6473 12.5118 37.7029 12.5257 37.7488 12.5571C37.7947 12.5885 37.8277 12.6353 37.842 12.689C37.942 13.036 37.479 13.871 36.368 14.535H36.377C36.3699 15.107 36.3198 15.6776 36.227 16.242C36.1557 16.6942 36.1126 17.1504 36.098 17.608H36.108C36.149 17.602 36.188 17.597 36.224 17.594C36.3337 17.5175 36.4389 17.4347 36.539 17.346L36.546 17.34L36.547 17.328Z" fill="white"/>
</svg>
