<svg width="53" height="16" viewBox="0 0 53 16" fill="none" xmlns="http://www.w3.org/2000/svg">
<path d="M6.95375 9.74775L0.1025 7.00725V5.96775L6.95375 3.22725V4.20375L0.512 6.7395V6.2355L6.95375 8.77125V9.74775ZM11.8393 12.0788C11.1568 12.0788 10.5111 11.9843 9.90208 11.7952C9.29308 11.5957 8.81533 11.349 8.46883 11.055L8.97283 10.173C9.30883 10.425 9.73933 10.6455 10.2643 10.8345C10.7893 11.013 11.3406 11.1022 11.9181 11.1022C12.7056 11.1022 13.2726 10.9815 13.6191 10.74C13.9656 10.488 14.1388 10.1572 14.1388 9.74775C14.1388 9.44325 14.0391 9.207 13.8396 9.039C13.6506 8.8605 13.3986 8.72925 13.0836 8.64525C12.7686 8.55075 12.4168 8.472 12.0283 8.409C11.6398 8.346 11.2513 8.2725 10.8628 8.1885C10.4848 8.1045 10.1383 7.98375 9.82333 7.82625C9.50833 7.65825 9.25108 7.4325 9.05158 7.149C8.86258 6.8655 8.76808 6.4875 8.76808 6.015C8.76808 5.5635 8.89408 5.15925 9.14608 4.80225C9.39808 4.44525 9.76558 4.167 10.2486 3.9675C10.7421 3.7575 11.3406 3.6525 12.0441 3.6525C12.5796 3.6525 13.1151 3.726 13.6506 3.873C14.1861 4.0095 14.6271 4.19325 14.9736 4.42425L14.4853 5.322C14.1178 5.07 13.7241 4.8915 13.3041 4.7865C12.8841 4.671 12.4641 4.61325 12.0441 4.61325C11.2986 4.61325 10.7473 4.7445 10.3903 5.007C10.0438 5.259 9.87058 5.5845 9.87058 5.9835C9.87058 6.2985 9.96508 6.54525 10.1541 6.72375C10.3536 6.90225 10.6108 7.044 10.9258 7.149C11.2513 7.2435 11.6031 7.32225 11.9811 7.38525C12.3696 7.44825 12.7528 7.527 13.1308 7.6215C13.5193 7.7055 13.8711 7.82625 14.1861 7.98375C14.5116 8.13075 14.7688 8.346 14.9578 8.6295C15.1573 8.9025 15.2571 9.26475 15.2571 9.71625C15.2571 10.1992 15.1206 10.6192 14.8476 10.9762C14.5851 11.3227 14.1966 11.5957 13.6821 11.7952C13.1781 11.9843 12.5638 12.0788 11.8393 12.0788ZM19.9235 12.0788C19.1465 12.0788 18.548 11.8688 18.128 11.4487C17.708 11.0287 17.498 10.4355 17.498 9.669V1.90425H18.6163V9.606C18.6163 10.089 18.737 10.4617 18.9785 10.7242C19.2305 10.9867 19.5875 11.118 20.0495 11.118C20.543 11.118 20.9525 10.9762 21.278 10.6927L21.6718 11.496C21.4513 11.6955 21.1835 11.8425 20.8685 11.937C20.564 12.0315 20.249 12.0788 19.9235 12.0788ZM16.0175 4.6605V3.73125H21.1363V4.6605H16.0175ZM23.6166 15.1343C23.2281 15.1343 22.8554 15.0713 22.4984 14.9453C22.1519 14.8193 21.8526 14.6303 21.6006 14.3783L22.1204 13.5435C22.3304 13.743 22.5561 13.8953 22.7976 14.0003C23.0496 14.1158 23.3279 14.1735 23.6324 14.1735C23.9999 14.1735 24.3149 14.0685 24.5774 13.8585C24.8504 13.659 25.1076 13.302 25.3491 12.7875L25.8846 11.5747L26.0106 11.4015L29.4126 3.73125H30.5151L26.3729 12.9923C26.1419 13.5278 25.8846 13.953 25.6011 14.268C25.3281 14.583 25.0289 14.8035 24.7034 14.9295C24.3779 15.066 24.0156 15.1343 23.6166 15.1343ZM25.8216 12.2363L22.0101 3.73125H23.1756L26.5461 11.3227L25.8216 12.2363ZM32.09 12V0.313499H33.2083V12H32.09ZM39.832 12.0788C38.971 12.0788 38.215 11.9002 37.564 11.5432C36.913 11.1757 36.4037 10.677 36.0362 10.047C35.6687 9.4065 35.485 8.67675 35.485 7.85775C35.485 7.03875 35.6582 6.31425 36.0047 5.68425C36.3617 5.05425 36.8447 4.56075 37.4537 4.20375C38.0732 3.83625 38.7662 3.6525 39.5327 3.6525C40.3097 3.6525 40.9975 3.831 41.596 4.188C42.205 4.5345 42.6827 5.028 43.0292 5.6685C43.3757 6.2985 43.549 7.02825 43.549 7.85775C43.549 7.91025 43.5437 7.968 43.5332 8.031C43.5332 8.0835 43.5332 8.14125 43.5332 8.20425H36.3355V7.3695H42.9347L42.4937 7.70025C42.4937 7.10175 42.3625 6.5715 42.1 6.1095C41.848 5.637 41.5015 5.2695 41.0605 5.007C40.6195 4.7445 40.1102 4.61325 39.5327 4.61325C38.9657 4.61325 38.4565 4.7445 38.005 5.007C37.5535 5.2695 37.2017 5.637 36.9497 6.1095C36.6977 6.582 36.5717 7.12275 36.5717 7.73175V7.905C36.5717 8.535 36.7082 9.0915 36.9812 9.5745C37.2647 10.047 37.6532 10.4197 38.1467 10.6927C38.6507 10.9552 39.223 11.0865 39.8635 11.0865C40.3675 11.0865 40.8347 10.9972 41.2652 10.8187C41.7062 10.6402 42.0842 10.3672 42.3992 9.99975L43.0292 10.7242C42.6617 11.1652 42.1997 11.5012 41.6432 11.7322C41.0972 11.9632 40.4935 12.0788 39.832 12.0788ZM45.3684 9.74775V8.77125L51.8101 6.2355V6.7395L45.3684 4.20375V3.22725L52.2196 5.96775V7.00725L45.3684 9.74775Z" fill="white"/>
</svg>