<svg width="72" height="28" viewBox="0 0 72 28" fill="none" xmlns="http://www.w3.org/2000/svg">
<path d="M71.635 27.742H0.734985L0.770996 27.433L17.01 11.222L21.459 15.663L36.199 0.947998L50.941 15.663L55.389 11.222L71.629 27.433L71.636 27.741L71.635 27.742ZM14.723 24.081C15.063 24.081 15.414 24.097 15.765 24.129C15.788 24.129 15.802 24.139 15.807 24.153C15.843 24.253 15.471 24.618 15.078 25.008C14.647 25.435 14.201 25.876 14.285 25.974C14.8102 25.4915 15.3882 25.0699 16.008 24.717C16.6893 24.3362 17.3135 23.8612 17.862 23.306C17.946 23.406 17.996 23.446 18.031 23.446C18.066 23.446 18.095 23.387 18.131 23.297C18.1842 23.1354 18.2677 22.9853 18.377 22.855C18.6418 22.6282 18.9507 22.4587 19.2843 22.3572C19.6178 22.2557 19.9687 22.2243 20.315 22.265H20.483H20.508C20.628 22.265 20.648 22.375 20.658 22.479C20.658 22.491 20.658 22.503 20.658 22.514V22.521C20.666 22.614 20.672 22.694 20.734 22.694C20.7638 22.6913 20.7924 22.681 20.817 22.664C21.0321 22.5121 21.2139 22.3178 21.351 22.093C21.488 21.8678 21.6701 21.6734 21.886 21.522C21.511 20.9211 21.0819 20.3558 20.604 19.833C19.395 18.42 18.024 16.818 18.369 13.978C18.3523 13.9767 18.3356 13.9767 18.319 13.978C18.25 13.978 18.125 13.978 18.004 13.984C17.843 13.989 17.74 13.992 17.688 13.992H17.652C17.5996 13.9291 17.5522 13.8622 17.51 13.792C17.421 13.65 17.357 13.548 17.146 13.548C16.9792 13.5587 16.8147 13.5924 16.657 13.648C15.523 14.523 6.557 23.629 6.466 23.721C6.59763 23.8899 6.74496 24.0459 6.90601 24.187C7.17001 23.952 8.43401 22.894 8.58801 22.831C8.71569 22.7591 8.85782 22.7168 9.004 22.707C9.0595 22.7008 9.11537 22.7148 9.16144 22.7464C9.20751 22.7779 9.24073 22.825 9.255 22.879C9.355 23.226 8.892 24.06 7.78 24.725C7.80899 24.714 7.84008 24.7095 7.871 24.712C8.37668 24.7449 8.87507 24.85 9.35101 25.024H9.36099C9.40199 25.018 9.43999 25.013 9.47699 25.01C9.58668 24.9335 9.69186 24.8507 9.79199 24.762L9.79999 24.755C9.8429 24.8134 9.86854 24.8827 9.87399 24.955C9.80899 25.133 9.79299 25.226 9.82199 25.267C9.82889 25.2758 9.83794 25.2828 9.84827 25.2871C9.85859 25.2915 9.86986 25.2932 9.88101 25.292C10.0539 25.2535 10.2198 25.1888 10.373 25.1C10.606 24.99 10.924 24.839 11.318 24.691C12.4059 24.2802 13.5602 24.0734 14.723 24.081V24.081ZM54.982 14.556C54.8953 14.559 54.8095 14.5741 54.727 14.601C53.829 15.3114 52.9997 16.1046 52.25 16.97L56.972 21.687C56.9686 21.6894 56.9659 21.6925 56.964 21.6962C56.9621 21.6998 56.961 21.7039 56.961 21.708C56.961 21.781 57.182 21.975 57.442 22.2C57.6465 22.3702 57.8421 22.5508 58.028 22.741L58.386 23.097L58.263 23.222C58.307 23.2454 58.3562 23.2574 58.406 23.257C58.4544 23.2561 58.5022 23.2477 58.548 23.232C58.712 23.212 58.801 22.885 58.903 22.507C58.9675 22.1808 59.0901 21.8688 59.265 21.586C59.856 22.443 60.175 22.825 60.3 22.825C60.3072 22.8251 60.3144 22.8237 60.3209 22.8207C60.3275 22.8178 60.3333 22.8134 60.338 22.808C60.394 22.743 60.361 22.503 60.322 22.224C60.309 22.13 60.295 22.033 60.284 21.934C60.2172 21.6629 60.2466 21.3769 60.367 21.125C60.3921 21.0972 60.4231 21.0755 60.4577 21.0613C60.4923 21.0471 60.5297 21.0408 60.567 21.043C60.7019 21.0535 60.8324 21.0956 60.948 21.166C60.7429 20.8384 60.6283 20.4623 60.616 20.076C60.594 19.734 60.579 19.487 59.958 19.018C59.9231 19.0273 59.8871 19.032 59.851 19.032C58.862 19.032 56.879 15.754 56.441 14.942C56.419 14.942 56.189 15.068 55.915 15.219L55.879 15.239C55.648 15.366 55.409 15.497 55.392 15.497C55.3019 15.3558 55.2605 15.189 55.274 15.022C55.261 14.782 55.251 14.556 54.981 14.556H54.982ZM27.282 18.276C27.325 18.3343 27.3503 18.4037 27.355 18.476C27.301 18.622 27.288 18.706 27.313 18.742C27.3177 18.7484 27.3239 18.7534 27.3311 18.7567C27.3382 18.7601 27.3461 18.7615 27.354 18.761C27.6325 18.6441 27.8892 18.4808 28.113 18.278C29.5579 17.1274 31.2096 16.2639 32.979 15.734C33.22 15.752 33.338 16.084 33.442 16.376C33.4777 16.502 33.532 16.622 33.603 16.732C34.1286 16.2485 34.7073 15.8261 35.328 15.473C36.0085 15.0931 36.6319 14.6191 37.18 14.065C37.263 14.165 37.313 14.205 37.349 14.205C37.385 14.205 37.413 14.146 37.449 14.056C37.5023 13.8947 37.5858 13.7451 37.695 13.615C37.9589 13.3879 38.267 13.2181 38.5999 13.1164C38.9328 13.0146 39.2833 12.9832 39.629 13.024H39.801H39.826C39.946 13.024 39.966 13.134 39.976 13.238C39.976 13.251 39.976 13.264 39.976 13.277C39.984 13.377 39.99 13.453 40.052 13.453C40.0822 13.4502 40.1112 13.4395 40.136 13.422C40.3512 13.2706 40.5329 13.0766 40.67 12.852C40.807 12.6268 40.9892 12.4324 41.205 12.281C40.8298 11.6794 40.4004 11.1133 39.922 10.59C38.713 9.178 37.343 7.577 37.688 4.737C37.6694 4.73537 37.6506 4.73537 37.632 4.737C37.561 4.737 37.432 4.737 37.332 4.744C37.232 4.751 37.089 4.75 37.022 4.75C37.006 4.75128 36.99 4.75128 36.974 4.75C36.9213 4.6871 36.8735 4.62024 36.831 4.55C36.742 4.409 36.678 4.306 36.468 4.306C36.3012 4.31667 36.1366 4.35032 35.979 4.40601C34.85 5.27801 25.879 14.387 25.787 14.479C25.9195 14.6475 26.0671 14.8034 26.228 14.945C26.492 14.71 27.757 13.652 27.91 13.59C28.038 13.518 28.1805 13.4756 28.327 13.466C28.3822 13.4598 28.4379 13.4737 28.4838 13.5051C28.5296 13.5365 28.5627 13.5833 28.577 13.637C28.677 13.984 28.214 14.819 27.103 15.483H27.112C27.1049 16.055 27.0548 16.6256 26.962 17.19C26.8906 17.6422 26.8476 18.0984 26.833 18.556H26.843C26.884 18.55 26.923 18.545 26.959 18.542C27.0687 18.4655 27.1739 18.3827 27.274 18.294L27.281 18.288L27.282 18.276Z" fill="white"/>
</svg>
